# File created by Blade
# Date/Time:  Mon Sep 29 17:58:21 2014
# Frame Rate: 120.000 fps
#------------------------------------------------------
:FULLY-SPECIFIED
:DEGREES
1270
root -0.915066 2.998935 -8.006426 -39.633449 -0.476050 14.178145
Spine 33.944296 9.266204 -2.141894
Head 5.313826 -3.946763 -14.086370
LeftShoulder -9.635738 31.011315 5.892291
LeftArm 2.572791 45.319719 -75.025011
LeftForeArm -22.869601 -0.000000 31.002437
LeftHand -49.794105 -0.000000 75.006889
LeftHandThumb1 -26.253704 0.000000 33.147579
RightShoulder -11.533776 1.641684 -32.051879
RightArm -57.325919 -50.554582 119.548976
RightForeArm -6.473785 -0.000000 66.327764
RightHand -18.548366 -0.000000 -14.752883
RightHandThumb1 -24.326973 -0.000000 -32.862282
LeftUpLeg -104.899086 -12.939669 -31.935267
LeftLeg 123.531893 -0.000000 -0.000000
LeftFoot 21.549659 10.217536 -21.186958
LeftToeBase 2.600203 -0.000000 -0.000000
RightUpLeg -49.678388 13.397604 5.382933
RightLeg 10.286220 -0.000000 -0.000000
RightFoot 31.337211 3.987669 13.385902
RightToeBase -0.221811 -0.000000 0.000000
1271
root -0.932336 3.017991 -7.984818 -39.476848 -0.652982 14.443110
Spine 34.057439 9.545120 -2.290668
Head 5.373904 -3.865959 -14.128633
LeftShoulder -9.645177 30.793242 5.619322
LeftArm 2.661209 45.035950 -74.905144
LeftForeArm -22.691821 -0.000000 30.273417
LeftHand -50.086583 -0.000000 74.288897
LeftHandThumb1 -26.253704 0.000000 33.147579
RightShoulder -11.396016 1.690386 -31.919538
RightArm -57.375234 -50.684871 119.798319
RightForeArm -6.579875 0.000000 66.013520
RightHand -18.531022 0.000000 -14.704105
RightHandThumb1 -24.326973 -0.000000 -32.862282
LeftUpLeg -105.021742 -12.903119 -31.952404
LeftLeg 124.174716 -0.000000 -0.000000
LeftFoot 21.675462 10.549465 -20.708215
LeftToeBase 1.854243 -0.000000 -0.000000
RightUpLeg -49.755430 13.635173 5.339458
RightLeg 10.284780 -0.000000 -0.000000
RightFoot 31.459246 3.922289 13.972856
RightToeBase -0.338409 -0.000000 0.000000
1272
root -0.946968 3.037082 -7.964661 -39.300277 -0.790497 14.720672
Spine 34.151389 9.789905 -2.490798
Head 5.423599 -3.781567 -14.164640
LeftShoulder -9.729951 30.680679 5.325268
LeftArm 2.952899 44.801293 -74.667676
LeftForeArm -22.460729 -0.000000 29.349253
LeftHand -49.734495 -0.000000 73.975947
LeftHandThumb1 -26.253704 0.000000 33.147579
RightShoulder -11.266543 1.735697 -31.769203
RightArm -57.418131 -50.839212 120.033966
RightForeArm -6.558017 0.000000 65.697219
RightHand -18.465337 -0.000000 -14.971400
RightHandThumb1 -24.326973 -0.000000 -32.862282
LeftUpLeg -105.083133 -12.937192 -32.168001
LeftLeg 124.746073 -0.000000 -0.000000
LeftFoot 21.596828 11.108830 -19.976844
LeftToeBase 1.295108 -0.000000 -0.000000
RightUpLeg -49.880900 13.848686 5.236316
RightLeg 10.327338 -0.000000 -0.000000
RightFoot 31.481212 3.754876 14.578918
RightToeBase -0.459324 -0.000000 0.000000
1273
root -0.960381 3.060763 -7.948799 -39.102004 -0.900126 15.007268
Spine 34.230535 10.020780 -2.690860
Head 5.494633 -3.731849 -14.317847
LeftShoulder -9.780555 30.463825 4.969030
LeftArm 3.114378 44.546632 -74.444684
LeftForeArm -22.354661 -0.000000 28.562601
LeftHand -49.716972 -0.000000 73.312458
LeftHandThumb1 -26.253704 0.000000 33.147579
RightShoulder -11.142474 1.700211 -31.627250
RightArm -57.304719 -50.973878 120.187724
RightForeArm -6.562700 -0.000000 65.342477
RightHand -18.451793 -0.000000 -16.132980
RightHandThumb1 -24.326973 -0.000000 -32.862282
LeftUpLeg -105.111940 -12.970740 -32.407907
LeftLeg 125.212778 -0.000000 -0.000000
LeftFoot 21.693747 11.511169 -18.856604
LeftToeBase 0.500652 -0.000000 -0.000000
RightUpLeg -50.034447 13.986935 5.145419
RightLeg 10.405107 -0.000000 -0.000000
RightFoot 31.464404 3.623242 15.136469
RightToeBase -0.410209 -0.000000 0.000000
